<?xml version="1.0" standalone="no"?>
<!DOCTYPE svg PUBLIC "-//W3C//DTD SVG 20010904//EN"
 "http://www.w3.org/TR/2001/REC-SVG-20010904/DTD/svg10.dtd">
<svg version="1.0" xmlns="http://www.w3.org/2000/svg"
 width="256.000000pt" height="256.000000pt" viewBox="0 0 256.000000 256.000000"
 preserveAspectRatio="xMidYMid meet">
<metadata>
Created by potrace 1.11, written by Peter Selinger 2001-2013
</metadata>
<g transform="translate(0.000000,256.000000) scale(0.100000,-0.100000)"
fill="#000000" stroke="none">
<path d="M1150 2507 c-3 -3 -27 -8 -55 -11 -197 -26 -419 -122 -580 -249 -301
-240 -474 -596 -473 -977 1 -331 113 -612 341 -856 166 -177 430 -325 643
-358 20 -4 39 -8 43 -10 25 -15 250 -23 351 -11 92 10 260 55 352 95 415 179
700 571 745 1025 7 81 7 178 -2 244 -13 100 -17 119 -36 191 -87 330 -316 618
-619 777 -107 56 -264 109 -382 129 -47 7 -322 17 -328 11z"/>
</g>
</svg>
